<?xml version="1.0" encoding="UTF-8" standalone="no"?>

<svg xmlns="http://www.w3.org/2000/svg" version="1.1" fill="currentColor" viewBox="0 0 15.473025 2.3619999">
    <path d="m 2.944875,2.361914 c 0.40005,0 0.70485,-0.219075 0.8255,-0.530225 L 3.41795,1.691989 c -0.08255,0.2032 -0.254,0.333375 -0.473075,0.333375 -0.276225,0 -0.4953,-0.18415 -0.523875,-0.498475 H 3.757675 V 1.415764 c 0,-0.66675 -0.428625,-0.923925 -0.8382,-0.923925 -0.51435,0 -0.879475,0.396875 -0.879475,0.9398 0,0.561975 0.38735,0.930275 0.904875,0.930275 z M 2.44005,1.257014 C 2.4845,0.996664 2.65595,0.815689 2.9163,0.815689 c 0.219075,0 0.434975,0.12065 0.460375,0.441325 z"/>
    <path d="m 4.813049,2.361914 c 0.40005,0 0.720725,-0.212725 0.847725,-0.57785 L 5.311524,1.647539 c -0.0889,0.22225 -0.2667,0.358775 -0.4953,0.358775 -0.2921,0 -0.517524,-0.225425 -0.517524,-0.581025 0,-0.327025 0.19685,-0.57785 0.501649,-0.57785 0.2032,0 0.377825,0.104775 0.454025,0.32385 l 0.3556,-0.142875 C 5.479799,0.675989 5.162299,0.491839 4.803524,0.491839 4.289175,0.491839 3.905,0.856964 3.905,1.428464 c 0,0.5715 0.38735,0.93345 0.908049,0.93345 z"/>
    <path d="m 6.643875,2.361914 c 0.40005,0 0.70485,-0.219075 0.8255,-0.530225 L 7.11695,1.691989 C 7.0344,1.895189 6.86295,2.025364 6.643875,2.025364 6.36765,2.025364 6.148575,1.841214 6.12,1.526889 H 7.456675 V 1.415764 c 0,-0.66675 -0.428625,-0.923925 -0.8382,-0.923925 -0.51435,0 -0.879475,0.396875 -0.879475,0.9398 0,0.561975 0.38735,0.930275 0.904875,0.930275 z M 6.13905,1.257014 C 6.1835,0.996664 6.35495,0.815689 6.6153,0.815689 c 0.219075,0 0.434975,0.12065 0.460375,0.441325 z"/>
    <path d="m 7.725,2.307939 h 0.37465 v -0.93345 c 0,-0.3302 0.187325,-0.52705 0.441325,-0.52705 0.269875,0 0.377825,0.22225 0.377825,0.51435 v 0.94615 H 9.296625 V 1.196689 C 9.296625,0.698214 8.991825,0.492 8.67115,0.492 8.445725,0.492 8.233,0.593439 8.09965,0.825214 H 8.09335 V 0.542639 h -0.3683 z"/>
    <path d="m 10.32335,2.361914 c 0.117475,0 0.238125,-0.02223 0.327025,-0.07302 V 1.949169 c -0.08255,0.04445 -0.17145,0.06985 -0.254,0.06985 -0.2413,0 -0.2413,-0.219075 -0.2413,-0.3937 V 0.822 h 0.4953 v -0.33 h -0.4953 V 0 H 9.77725 V 0.492 H 9.428042 L 9.428,0.822 h 0.34925 v 0.933494 c 0,0.187325 0,0.606425 0.5461,0.606425 z"/>
    <path d="m 11.48705,2.361914 c 0.26035,0 0.434975,-0.111125 0.542925,-0.301625 h 0.0063 c 0,0.0635 0.0127,0.142875 0.0381,0.24765 h 0.37465 c -0.03493,-0.1397 -0.05715,-0.257175 -0.05715,-0.55245 V 0.542639 H 12.01405 v 0.962025 c 0,0.263525 -0.1524,0.50165 -0.4191,0.50165 -0.219075,0 -0.365125,-0.1651 -0.365125,-0.48895 V 0.542639 H 10.852 v 1.108075 c 0,0.492125 0.269875,0.7112 0.635,0.7112 z"/>
    <path d="m 12.7711,2.307939 h 0.37465 v -0.93345 c 0,-0.3302 0.1905,-0.52705 0.428625,-0.52705 0.250825,0 0.358775,0.212725 0.358775,0.51435 v 0.94615 h 0.377825 v -0.93345 c 0,-0.3302 0.187325,-0.52705 0.428625,-0.52705 0.24765,0 0.3556,0.2159 0.3556,0.51435 v 0.94615 h 0.377825 v -1.11125 c 0,-0.485775 -0.314325,-0.70485 -0.625475,-0.70485 -0.2032,0 -0.422275,0.0889 -0.593725,0.3556 h -0.0064 c -0.09207,-0.24765 -0.320675,-0.3556 -0.53975,-0.3556 -0.2159,0 -0.434975,0.10795 -0.561975,0.333375 H 13.1393 V 0.542639 H 12.771 Z"/>
    <path d="M 0,2.362 H 0.87284203 C 1.5267536,2.362 1.9127633,1.8684126 1.9127633,1.1658845 1.9127633,0.52694687 1.5958899,5.01008e-5 0.8469164,5.01008e-5 H 0 Z M 0.36296388,2.0107358 V 0.35131426 h 0.39465121 c 0.37448731,0 0.77490021,0.17260427 0.77490021,0.83576744 0,0.5935148 -0.3168733,0.8236541 -0.6913606,0.8236541 z"/>
</svg>
