<svg viewBox="0 0 154 32" fill="none" xmlns="http://www.w3.org/2000/svg">
    <path
        d="M0 10.812v5.628a14.63 14.63 0 0 1 14.64 14.64h5.624A20.287 20.287 0 0 0 0 10.812ZM28.126.68h-8.913A36.168 36.168 0 0 1 30.4 11.866V2.953A2.274 2.274 0 0 0 28.126.68Z" />
    <path
        d="M5.6.68H0v5.067A25.36 25.36 0 0 1 25.334 31.08H30.4v-5.6A30.995 30.995 0 0 0 5.6.68ZM44.185 4.026h-3.57v17.992h3.57V4.026ZM57.31 11.822a6.066 6.066 0 0 0-2.047-1.226 7.578 7.578 0 0 0-5.021 0 6.065 6.065 0 0 0-2.047 1.226 5.76 5.76 0 0 0-1.368 1.915 6.495 6.495 0 0 0 0 4.998 5.736 5.736 0 0 0 1.368 1.92c.593.54 1.288.957 2.045 1.225a7.566 7.566 0 0 0 5.022 0 6.027 6.027 0 0 0 2.046-1.225 5.746 5.746 0 0 0 1.368-1.92 6.493 6.493 0 0 0 0-4.998 5.765 5.765 0 0 0-1.366-1.915Zm-2.451 6.533a3.147 3.147 0 0 1-4.213 0 3.368 3.368 0 0 1 0-4.24 3.147 3.147 0 0 1 4.213 0 3.368 3.368 0 0 1 0 4.24ZM70.125 11.976h-.045a3.641 3.641 0 0 0-.571-.63 4.142 4.142 0 0 0-.856-.584 5.394 5.394 0 0 0-2.523-.595 4.685 4.685 0 0 0-2.213.512c-.638.33-1.2.788-1.654 1.345a6.108 6.108 0 0 0-1.048 1.927 6.97 6.97 0 0 0-.368 2.24 6.87 6.87 0 0 0 .404 2.4c.251.703.642 1.346 1.15 1.893a5.19 5.19 0 0 0 1.798 1.236c.74.302 1.533.451 2.332.44a4.91 4.91 0 0 0 1.725-.345 3.36 3.36 0 0 0 1.535-1.178h.048v1.12a2.801 2.801 0 0 1-.773 2.034 3.232 3.232 0 0 1-2.416.8 4.92 4.92 0 0 1-2.01-.405 7.46 7.46 0 0 1-1.75-1.094l-1.975 2.948a6.889 6.889 0 0 0 2.76 1.345c1 .23 2.022.345 3.047.345 2.253 0 3.93-.568 5.033-1.702 1.102-1.134 1.654-2.796 1.654-4.986v-10.59h-3.28l-.004 1.524Zm-.214 5.271c-.141.339-.348.646-.608.905a3.09 3.09 0 0 1-.916.63 2.77 2.77 0 0 1-2.248 0 3.144 3.144 0 0 1-.905-.63 2.808 2.808 0 0 1 0-3.974c.262-.262.568-.476.905-.632a2.779 2.779 0 0 1 2.248 0c.341.154.651.368.916.632a2.822 2.822 0 0 1 .608 3.07ZM86.82 11.822a6.066 6.066 0 0 0-2.047-1.226 7.578 7.578 0 0 0-5.022 0 6.064 6.064 0 0 0-2.047 1.226 5.758 5.758 0 0 0-1.368 1.915 6.495 6.495 0 0 0 0 4.998 5.736 5.736 0 0 0 1.368 1.92c.594.54 1.29.957 2.047 1.225a7.566 7.566 0 0 0 5.022 0 6.027 6.027 0 0 0 2.046-1.225 5.736 5.736 0 0 0 1.368-1.92 6.495 6.495 0 0 0 0-4.998 5.758 5.758 0 0 0-1.368-1.915Zm-2.452 6.533a3.147 3.147 0 0 1-4.213 0 3.368 3.368 0 0 1 0-4.24 3.147 3.147 0 0 1 4.213 0 3.368 3.368 0 0 1 0 4.24ZM93.422 10.533h-1.914V22.02h1.914V10.533ZM92.466 4.643a1.334 1.334 0 0 0-.995.417 1.4 1.4 0 1 0 1.988 0 1.33 1.33 0 0 0-.993-.417ZM107.583 11.96a5.502 5.502 0 0 0-1.901-1.265 6.518 6.518 0 0 0-2.467-.453 5.098 5.098 0 0 0-2.295.516 5.644 5.644 0 0 0-1.829 1.447h-.051v-1.672h-1.912v17.082h1.912v-7.632h.049a4.38 4.38 0 0 0 1.711 1.657 5.307 5.307 0 0 0 2.711.675 5.666 5.666 0 0 0 2.259-.454 5.496 5.496 0 0 0 1.828-1.264 5.926 5.926 0 0 0 1.215-1.914 6.77 6.77 0 0 0 0-4.81 5.81 5.81 0 0 0-1.23-1.913Zm-.675 6a3.887 3.887 0 0 1-2.108 2.255 4.433 4.433 0 0 1-3.36 0 3.88 3.88 0 0 1-2.11-2.257 5.148 5.148 0 0 1 0-3.36 3.886 3.886 0 0 1 2.11-2.258 4.432 4.432 0 0 1 3.36 0 3.874 3.874 0 0 1 2.11 2.258 5.145 5.145 0 0 1 0 3.36l-.002.002ZM118.898 16.28a4.21 4.21 0 0 0-1.2-.626c-.474-.16-.958-.287-1.448-.38a10.888 10.888 0 0 1-1.092-.245 5.619 5.619 0 0 1-.933-.344 2.052 2.052 0 0 1-.64-.455.897.897 0 0 1-.233-.625 1.21 1.21 0 0 1 .209-.7c.137-.203.317-.375.527-.503a2.49 2.49 0 0 1 .725-.294 3.36 3.36 0 0 1 .8-.098 2.673 2.673 0 0 1 1.46.38c.397.25.729.59.969.994l1.596-1.055a3.551 3.551 0 0 0-1.633-1.596 5.274 5.274 0 0 0-2.27-.49 5.597 5.597 0 0 0-1.57.22c-.489.14-.954.356-1.375.64a3.192 3.192 0 0 0-.982 1.055c-.251.45-.378.958-.368 1.472-.02.504.094 1.004.331 1.45.216.371.518.687.88.92.4.251.834.446 1.288.576.491.147 1.007.278 1.547.393.311.065.614.139.908.22.275.075.54.186.785.332.217.128.404.3.552.503.148.226.221.492.209.76.009.284-.068.563-.221.8a1.805 1.805 0 0 1-.589.553c-.254.151-.532.26-.822.32a4.225 4.225 0 0 1-.896.098 3.194 3.194 0 0 1-1.706-.417A4.818 4.818 0 0 1 112.467 19l-1.52 1.178a4.605 4.605 0 0 0 1.927 1.68c.807.32 1.671.476 2.54.455.565 0 1.129-.066 1.68-.196a4.605 4.605 0 0 0 1.472-.626c.431-.285.787-.67 1.04-1.12a3.311 3.311 0 0 0 .394-1.665 3.21 3.21 0 0 0-.294-1.448 2.79 2.79 0 0 0-.808-.978ZM132.69 19.295v-8.762h-1.915v5.6a7.212 7.212 0 0 1-.208 1.792c-.123.503-.34.977-.64 1.399a2.851 2.851 0 0 1-1.105.908 3.733 3.733 0 0 1-1.607.32 2.345 2.345 0 0 1-1.988-.835 3.67 3.67 0 0 1-.64-2.282v-6.902h-1.915v7.093a6.682 6.682 0 0 0 .258 1.902c.154.548.427 1.055.8 1.485.373.42.838.75 1.36.96.621.243 1.284.36 1.951.344a4.589 4.589 0 0 0 2.43-.675c.313-.193.597-.428.846-.7.223-.24.41-.514.553-.81h.049c0 .328.008.648.024.96.017.312.025.623.024.933h1.817c0-.377-.016-.794-.049-1.252-.034-.457-.048-.95-.045-1.478ZM153.379 13.05a3.77 3.77 0 0 0-.736-1.52 3.283 3.283 0 0 0-1.35-.96 5.615 5.615 0 0 0-2.062-.332 3.728 3.728 0 0 0-2.16.577 5.31 5.31 0 0 0-1.472 1.608 9.084 9.084 0 0 0-.38-.675 2.778 2.778 0 0 0-.651-.712 3.794 3.794 0 0 0-1.04-.56 4.515 4.515 0 0 0-1.559-.234 4.574 4.574 0 0 0-2.43.675 4.008 4.008 0 0 0-.846.7 3.32 3.32 0 0 0-.552.81h-.05c0-.328-.008-.647-.024-.96a18.219 18.219 0 0 1-.024-.933h-1.816c0 .377.016.794.048 1.252.033.457.049.949.049 1.473v8.76h1.916v-5.595a7.172 7.172 0 0 1 .209-1.792c.122-.503.339-.978.64-1.399a2.846 2.846 0 0 1 1.104-.908 3.732 3.732 0 0 1 1.608-.32 1.86 1.86 0 0 1 1.693.8c.411.842.589 1.778.516 2.712v6.504h1.91v-6.629a3.97 3.97 0 0 1 .234-1.386c.142-.394.359-.757.64-1.067.265-.291.586-.525.945-.688a2.756 2.756 0 0 1 1.153-.245c.473-.017.943.075 1.375.27.339.164.634.408.858.712.216.301.366.644.442 1.006.082.379.123.766.123 1.154v6.872h1.91v-6.97a8.363 8.363 0 0 0-.221-2Z" />
</svg>