<svg width="34" height="33" viewBox="0 0 34 33" fill="none" xmlns="http://www.w3.org/2000/svg">
<path d="M30.2293 14.3255C29.933 13.5099 29.0809 12.9617 28.1094 12.9617C27.8314 12.9617 27.563 13.0079 27.3114 13.0993C27.0781 13.1842 26.7943 13.353 26.526 13.5633C26.1228 12.6743 25.2274 12.0891 24.2409 12.0891C23.9485 12.0891 23.66 12.1404 23.383 12.2407C22.8194 12.446 22.3725 12.8366 22.0869 13.32C21.6186 12.766 20.9202 12.4267 20.1688 12.4267C19.8767 12.4267 19.5879 12.4779 19.3109 12.5783C18.7214 12.7929 18.1811 13.1942 17.8202 13.7206L15.605 7.63577C15.1779 6.46115 14.3179 5.76025 13.3045 5.76025C13.0365 5.76025 12.7624 5.81042 12.4904 5.90968C11.1706 6.38985 10.5998 7.80025 11.1327 9.26511L16.3418 23.4766L13.6618 22.1472C13.2665 21.9627 12.848 21.8695 12.418 21.8695C11.291 21.8695 10.2537 22.5338 9.77422 23.5623C9.44205 24.2743 9.40622 25.0726 9.67317 25.8104C9.94013 26.5497 10.4794 27.1399 11.1649 27.4588C11.1893 27.4717 13.6589 28.7914 17.0774 30.3849L17.6328 30.6451C19.8244 31.6746 21.8945 32.6467 24.2939 32.6467H24.2943C25.4366 32.6467 26.5804 32.4324 27.7909 31.9921C32.0432 30.4444 32.6893 27.792 32.9867 25.2084C33.2727 22.723 30.354 14.667 30.2293 14.3255ZM31.9185 25.0855C31.6387 27.5179 31.1069 29.6407 27.4232 30.9816C26.3325 31.3782 25.3091 31.5714 24.2943 31.5714H24.2939C22.1346 31.5714 20.2601 30.6909 18.0901 29.6718L17.5318 29.4103C14.1423 27.83 11.6967 26.5232 11.6458 26.4974C11.195 26.2867 10.8535 25.9129 10.684 25.4446C10.5145 24.9755 10.5375 24.4681 10.7485 24.0159C11.0567 23.3548 11.6967 22.9441 12.418 22.9441C12.69 22.9441 12.9555 23.0036 13.1952 23.1158L17.0713 25.0382C17.2684 25.1361 17.5049 25.1045 17.669 24.9569C17.8328 24.81 17.8908 24.5781 17.8149 24.3717L12.1425 8.89639C11.8884 8.19728 11.9231 7.26024 12.858 6.91982C13.0125 6.86356 13.163 6.83525 13.3049 6.83525C13.847 6.83525 14.329 7.27206 14.5956 8.00342L18.0274 17.4315C18.1291 17.7107 18.4384 17.8544 18.7161 17.7526C18.9952 17.6512 19.1393 17.3423 19.0371 17.0635L18.5469 15.7165C18.1424 14.605 19.0024 13.8349 19.6789 13.5888C19.8373 13.5311 20.0021 13.5017 20.1688 13.5017C20.7693 13.5017 21.3111 13.8808 21.5165 14.4452L22.1844 16.2816L22.1905 16.2974C22.2922 16.5765 22.6015 16.7202 22.8792 16.6185C23.158 16.5167 23.302 16.2085 23.2003 15.9298L22.8864 15.0665C22.6312 14.3312 23.0186 13.5171 23.7503 13.2509C23.9087 13.1932 24.0735 13.1638 24.2405 13.1638C24.8407 13.1638 25.3822 13.5433 25.5878 14.1076L26.3733 16.2662L26.3837 16.296C26.4851 16.5748 26.7926 16.7192 27.0728 16.617C27.3516 16.5156 27.4956 16.2067 27.3938 15.928L26.9259 14.6426C27.0918 14.4706 27.4408 14.1954 27.6784 14.1091C27.8113 14.0607 27.9561 14.036 28.1087 14.036C28.6218 14.036 29.078 14.3058 29.2188 14.6924C30.0426 16.9549 32.1321 23.2297 31.9185 25.0855Z" fill="#333333"/>
<path d="M4.28395 3.66635C10.577 2.21796 17.1549 2.43225 23.3634 4.30812C23.7307 4.41885 24.2084 4.1974 24.3209 3.85734C24.433 3.51692 24.1632 3.05181 23.778 2.93606C17.3298 0.987805 10.4982 0.765639 3.96253 2.26956C3.84177 1.74568 3.72137 1.2218 3.60097 0.697914C3.55188 0.486497 3.46158 0.305538 3.2129 0.278663C2.96457 0.252147 2.81264 0.337072 2.67575 0.530213C2.03792 1.43035 1.44775 2.34553 0.906305 3.27111C0.747922 3.54272 0.85578 3.86558 1.13779 3.9953C2.10099 4.43963 3.02764 4.92123 3.91523 5.43616C4.1055 5.54652 4.25565 5.55692 4.43589 5.42863C4.61577 5.30035 4.61362 5.1004 4.56489 4.88862C4.47172 4.48084 4.37784 4.07377 4.28395 3.66635Z" fill="#333333"/>
</svg>
